<?xml version="1.0" encoding="UTF-8"?>
<!DOCTYPE svg PUBLIC "-//W3C//DTD SVG 1.1//EN" "http://www.w3.org/Graphics/SVG/1.1/DTD/svg11.dtd">
<!-- Creator: CorelDRAW X8 -->
<svg xmlns="http://www.w3.org/2000/svg" xml:space="preserve" width="210mm" height="297mm" version="1.1" style="shape-rendering:geometricPrecision; text-rendering:geometricPrecision; image-rendering:optimizeQuality; fill-rule:evenodd; clip-rule:evenodd"
viewBox="0 0 21000 29700"
 xmlns:xlink="http://www.w3.org/1999/xlink">
 <defs>
  <style type="text/css">
   <![CDATA[
    .fil1 {fill:#F85A16}
    .fil0 {fill:#F9BA48}
   ]]>
  </style>
 </defs>
 <g id="Camada_x0020_1">
  <metadata id="CorelCorpID_0Corel-Layer"/>
  <path class="fil0" d="M17530 15312l-165 -63c-11,361 -196,710 -530,909l-2521 1501c-455,271 -1052,204 -1401,-192 -142,-162 -228,-347 -263,-536 -80,-437 113,-897 518,-1138l1572 -936 -445 -677c-28,0 -55,-3 -83,-3 -2988,0 -5419,2432 -5419,5420 0,2988 2431,5419 5419,5419 2988,0 5419,-2431 5419,-5419 0,-1688 -765,-3250 -2101,-4285z"/>
  <g id="_816112640">
   <path class="fil1" d="M16255 4350c-1867,0 -3387,1519 -3387,3387 0,787 272,1510 725,2086 -528,-203 -1170,-312 -1580,-313 -1,0 -3,0 -5,0 -382,0 -2172,107 -3609,198 -728,46 -1356,493 -1641,1165l-1040 2461c-109,292 -115,604 -29,898l-1664 -417c-692,-173 -1422,7 -1953,484 -531,476 -791,1182 -695,1889l469 3436c61,441 309,834 682,1078 373,244 834,314 1262,191 0,0 1,0 2,-1l-1892 1978c-577,540 -607,1449 -67,2026 281,300 662,452 1045,452 353,0 708,-129 988,-392l4944 -4897c-1,-43 -6,-85 -6,-128 0,-307 32,-606 81,-900l-5489 5437c-304,285 -783,269 -1069,-35 -284,-304 -269,-784 49,-1082l5700 -5957 -4446 -1334 582 3203c80,436 -182,857 -608,978 -240,69 -497,30 -706,-106 -208,-137 -347,-356 -381,-603l-468 -3437c-67,-490 106,-961 475,-1292 369,-331 856,-452 1337,-331l2575 645c42,20 82,45 126,61 160,59 329,90 499,90 596,0 1136,-376 1344,-934l695 -1870 1394 15 7 -677 -1870 -20 -861 2315c-141,379 -589,589 -973,445 -189,-70 -340,-210 -424,-393 -84,-184 -91,-390 -27,-565l1036 -2447c184,-435 590,-723 1059,-753 2027,-128 3299,-213 3570,-197 536,1 1443,221 1767,492 424,354 689,697 763,826l2377 3608c84,128 127,276 124,434 1,267 -140,517 -369,653l-2521 1502c-323,192 -741,138 -974,-126 -97,-109 -158,-235 -183,-372 -57,-310 87,-626 357,-786l1877 -1118 -1526 -2318 -566 373 1136 1726 -1268 755c-512,304 -784,904 -677,1490 47,256 165,498 342,698 273,310 662,473 1061,473 261,0 527,-70 767,-213l2522 -1501c433,-258 701,-733 700,-1231 4,-289 -77,-569 -236,-811l-2365 -3588c-46,-83 -125,-193 -229,-319 418,185 879,290 1365,290 1868,0 3388,-1519 3388,-3387 0,-1868 -1520,-3387 -3388,-3387zm-9433 13375l-1959 2048c47,-201 54,-415 15,-631l-384 -2115 2328 698zm9433 -7278c-1494,0 -2709,-1216 -2709,-2710 0,-1494 1215,-2710 2709,-2710 1494,0 2710,1216 2710,2710 0,1494 -1216,2710 -2710,2710z"/>
   <rect class="fil1" x="17275" y="20269" width="677" height="677"/>
   <rect class="fil1" x="14904" y="22640" width="677" height="677"/>
   <rect class="fil1" x="16259" y="21624" width="677" height="677"/>
  </g>
  <g id="_816112352">
  </g>
  <g id="_816112064">
  </g>
  <g id="_816111776">
  </g>
  <g id="_816111488">
  </g>
  <g id="_816111200">
  </g>
  <g id="_816110912">
  </g>
  <g id="_816110624">
  </g>
  <g id="_816110336">
  </g>
  <g id="_816110048">
  </g>
  <g id="_816109760">
  </g>
  <g id="_816109472">
  </g>
  <g id="_816109184">
  </g>
  <g id="_816108896">
  </g>
  <g id="_816108608">
  </g>
  <g id="_84028560">
  </g>
 </g>
</svg>
